<svg width="108" height="52" viewBox="0 0 108 52" fill="none" xmlns="http://www.w3.org/2000/svg">
<path d="M0 0H104C105.886 0 106.828 0 107.414 0.585786C108 1.17157 108 2.11438 108 4V48C108 49.8856 108 50.8284 107.414 51.4142C106.828 52 105.886 52 104 52H0V0Z" fill="#3BB77E"/>
<path d="M21.236 32.16C20.468 32.16 19.7853 32.0533 19.188 31.84C18.5907 31.6267 18.02 31.2747 17.476 30.784C17.3587 30.6987 17.268 30.5973 17.204 30.48C17.1507 30.352 17.124 30.224 17.124 30.096C17.124 29.8933 17.1987 29.712 17.348 29.552C17.4973 29.392 17.684 29.312 17.908 29.312C18.0787 29.312 18.2387 29.3707 18.388 29.488C18.7933 29.8613 19.2147 30.144 19.652 30.336C20.1 30.528 20.6227 30.624 21.22 30.624C21.6467 30.624 22.036 30.5547 22.388 30.416C22.7507 30.2773 23.0387 30.0907 23.252 29.856C23.4653 29.6213 23.572 29.3493 23.572 29.04C23.572 28.656 23.46 28.3413 23.236 28.096C23.0227 27.84 22.708 27.632 22.292 27.472C21.8867 27.3013 21.396 27.1573 20.82 27.04C20.2867 26.944 19.8067 26.8107 19.38 26.64C18.964 26.4693 18.6067 26.256 18.308 26C18.0093 25.7333 17.78 25.4187 17.62 25.056C17.46 24.6933 17.38 24.272 17.38 23.792C17.38 23.1413 17.5507 22.5813 17.892 22.112C18.2333 21.6427 18.6973 21.28 19.284 21.024C19.8707 20.768 20.532 20.64 21.268 20.64C21.94 20.64 22.5693 20.7467 23.156 20.96C23.7427 21.1627 24.2173 21.44 24.58 21.792C24.836 22.016 24.964 22.256 24.964 22.512C24.964 22.704 24.884 22.8853 24.724 23.056C24.5747 23.216 24.3987 23.296 24.196 23.296C24.0467 23.296 23.9187 23.2533 23.812 23.168C23.6413 22.9867 23.412 22.8267 23.124 22.688C22.836 22.5387 22.5267 22.416 22.196 22.32C21.876 22.224 21.5667 22.176 21.268 22.176C20.788 22.176 20.3773 22.2453 20.036 22.384C19.6947 22.512 19.4333 22.6933 19.252 22.928C19.0707 23.152 18.98 23.4187 18.98 23.728C18.98 24.0907 19.0813 24.3893 19.284 24.624C19.4973 24.8587 19.7907 25.0507 20.164 25.2C20.5373 25.3387 20.964 25.4667 21.444 25.584C22.0307 25.712 22.5533 25.856 23.012 26.016C23.4813 26.176 23.876 26.384 24.196 26.64C24.516 26.8853 24.7613 27.1947 24.932 27.568C25.1027 27.9413 25.188 28.4053 25.188 28.96C25.188 29.6 25.0067 30.16 24.644 30.64C24.2813 31.12 23.8013 31.4933 23.204 31.76C22.6173 32.0267 21.9613 32.16 21.236 32.16ZM33.2514 23.584C33.4754 23.584 33.662 23.664 33.8114 23.824C33.9714 23.9733 34.0514 24.1653 34.0514 24.4V28.608C34.0514 29.7173 33.742 30.5867 33.1234 31.216C32.5047 31.8347 31.63 32.144 30.4994 32.144C29.3794 32.144 28.51 31.8347 27.8914 31.216C27.2834 30.5867 26.9794 29.7173 26.9794 28.608V24.4C26.9794 24.1653 27.054 23.9733 27.2034 23.824C27.3527 23.664 27.5447 23.584 27.7794 23.584C28.0034 23.584 28.19 23.664 28.3394 23.824C28.4994 23.9733 28.5794 24.1653 28.5794 24.4V28.608C28.5794 29.3013 28.7394 29.8187 29.0594 30.16C29.39 30.5013 29.87 30.672 30.4994 30.672C31.1394 30.672 31.6247 30.5013 31.9554 30.16C32.286 29.8187 32.4514 29.3013 32.4514 28.608V24.4C32.4514 24.1653 32.526 23.9733 32.6754 23.824C32.8247 23.664 33.0167 23.584 33.2514 23.584ZM40.5163 23.392C41.2629 23.392 41.9243 23.5787 42.5003 23.952C43.0869 24.3253 43.5509 24.8427 43.8923 25.504C44.2336 26.1547 44.4043 26.9067 44.4043 27.76C44.4043 28.6133 44.2336 29.3707 43.8923 30.032C43.5509 30.6933 43.0923 31.216 42.5163 31.6C41.9403 31.9733 41.2896 32.16 40.5643 32.16C40.1589 32.16 39.7749 32.096 39.4123 31.968C39.0496 31.8293 38.7296 31.6587 38.4523 31.456C38.1749 31.2427 37.9456 31.0187 37.7643 30.784C37.5936 30.5493 37.4869 30.3307 37.4443 30.128L37.8763 29.92V31.312C37.8763 31.536 37.7963 31.728 37.6363 31.888C37.4869 32.0373 37.3003 32.112 37.0763 32.112C36.8416 32.112 36.6496 32.0373 36.5003 31.888C36.3509 31.7387 36.2763 31.5467 36.2763 31.312V20.976C36.2763 20.7413 36.3509 20.5493 36.5003 20.4C36.6496 20.24 36.8416 20.16 37.0763 20.16C37.3003 20.16 37.4869 20.24 37.6363 20.4C37.7963 20.5493 37.8763 20.7413 37.8763 20.976V25.472L37.6203 25.328C37.6523 25.1253 37.7536 24.9173 37.9243 24.704C38.0949 24.48 38.3083 24.2667 38.5643 24.064C38.8309 23.8613 39.1296 23.7013 39.4603 23.584C39.8016 23.456 40.1536 23.392 40.5163 23.392ZM40.3403 24.864C39.8283 24.864 39.3803 24.992 38.9963 25.248C38.6229 25.504 38.3296 25.8507 38.1163 26.288C37.9029 26.7147 37.7963 27.2053 37.7963 27.76C37.7963 28.3147 37.9029 28.816 38.1163 29.264C38.3296 29.7013 38.6229 30.048 38.9963 30.304C39.3803 30.56 39.8283 30.688 40.3403 30.688C40.8416 30.688 41.2789 30.56 41.6523 30.304C42.0256 30.048 42.3189 29.696 42.5323 29.248C42.7563 28.8 42.8683 28.304 42.8683 27.76C42.8683 27.2053 42.7563 26.7147 42.5323 26.288C42.3189 25.8507 42.0256 25.504 41.6523 25.248C41.2789 24.992 40.8416 24.864 40.3403 24.864ZM45.7178 30.688C45.6218 30.5387 45.5791 30.368 45.5898 30.176C45.6004 29.9733 45.7124 29.8027 45.9258 29.664C46.0751 29.568 46.2297 29.5307 46.3898 29.552C46.5604 29.5627 46.7204 29.6427 46.8698 29.792C47.1684 30.1227 47.4991 30.384 47.8618 30.576C48.2351 30.768 48.6831 30.864 49.2057 30.864C49.4191 30.8533 49.6378 30.8213 49.8618 30.768C50.0858 30.704 50.2778 30.5973 50.4378 30.448C50.5978 30.288 50.6778 30.0587 50.6778 29.76C50.6778 29.4933 50.5924 29.28 50.4218 29.12C50.2511 28.96 50.0271 28.832 49.7498 28.736C49.4724 28.6293 49.1738 28.5333 48.8538 28.448C48.5124 28.352 48.1658 28.2453 47.8138 28.128C47.4724 28.0107 47.1631 27.8613 46.8858 27.68C46.6084 27.488 46.3791 27.2427 46.1978 26.944C46.0271 26.6453 45.9418 26.2773 45.9418 25.84C45.9418 25.3387 46.0804 24.9067 46.3578 24.544C46.6458 24.1813 47.0138 23.8987 47.4618 23.696C47.9204 23.4933 48.4164 23.392 48.9498 23.392C49.2591 23.392 49.5844 23.4347 49.9258 23.52C50.2671 23.5947 50.5978 23.7173 50.9178 23.888C51.2378 24.0587 51.5151 24.2827 51.7498 24.56C51.8564 24.6987 51.9151 24.864 51.9258 25.056C51.9471 25.248 51.8618 25.4187 51.6698 25.568C51.5418 25.6747 51.3871 25.7227 51.2058 25.712C51.0244 25.7013 50.8751 25.6427 50.7578 25.536C50.5551 25.28 50.2938 25.0827 49.9738 24.944C49.6538 24.7947 49.2911 24.72 48.8858 24.72C48.6831 24.72 48.4698 24.752 48.2458 24.816C48.0324 24.8693 47.8511 24.9707 47.7018 25.12C47.5524 25.2693 47.4778 25.488 47.4778 25.776C47.4778 26.0427 47.5631 26.256 47.7338 26.416C47.9151 26.576 48.1498 26.7093 48.4378 26.816C48.7258 26.9227 49.0404 27.0187 49.3818 27.104C49.7124 27.1893 50.0378 27.2907 50.3578 27.408C50.6884 27.5253 50.9818 27.68 51.2378 27.872C51.5044 28.0533 51.7178 28.2933 51.8778 28.592C52.0484 28.88 52.1338 29.248 52.1338 29.696C52.1338 30.2187 51.9791 30.6667 51.6698 31.04C51.3711 31.4027 50.9871 31.68 50.5178 31.872C50.0591 32.064 49.5738 32.16 49.0618 32.16C48.4538 32.16 47.8458 32.0533 47.2378 31.84C46.6404 31.616 46.1338 31.232 45.7178 30.688ZM57.5824 23.392C58.1584 23.392 58.6704 23.456 59.1184 23.584C59.5664 23.7013 59.913 23.872 60.1584 24.096C60.4144 24.3093 60.5424 24.56 60.5424 24.848C60.5424 25.0293 60.489 25.2 60.3824 25.36C60.2757 25.5093 60.1157 25.584 59.9024 25.584C59.753 25.584 59.625 25.5573 59.5184 25.504C59.4224 25.4507 59.3317 25.3867 59.2464 25.312C59.161 25.2373 59.0544 25.1627 58.9264 25.088C58.809 25.024 58.633 24.9707 58.3984 24.928C58.1744 24.8853 57.9717 24.864 57.7904 24.864C57.225 24.864 56.7344 24.992 56.3184 25.248C55.913 25.504 55.593 25.8507 55.3584 26.288C55.1344 26.7253 55.0224 27.2213 55.0224 27.776C55.0224 28.3307 55.1344 28.8267 55.3584 29.264C55.593 29.7013 55.9077 30.048 56.3024 30.304C56.7077 30.56 57.177 30.688 57.7104 30.688C58.0304 30.688 58.2917 30.6667 58.4944 30.624C58.697 30.5707 58.873 30.5067 59.0224 30.432C59.1824 30.336 59.3157 30.24 59.4224 30.144C59.5397 30.0373 59.6997 29.984 59.9024 29.984C60.137 29.984 60.313 30.0587 60.4304 30.208C60.5584 30.3467 60.6224 30.5227 60.6224 30.736C60.6224 30.9707 60.4784 31.2 60.1904 31.424C59.913 31.6373 59.5397 31.8133 59.0704 31.952C58.601 32.0907 58.0837 32.16 57.5184 32.16C56.6864 32.16 55.961 31.968 55.3424 31.584C54.7344 31.2 54.2597 30.6773 53.9184 30.016C53.5877 29.3547 53.4224 28.608 53.4224 27.776C53.4224 26.9333 53.5984 26.1867 53.9504 25.536C54.3024 24.8747 54.793 24.352 55.4224 23.968C56.0517 23.584 56.7717 23.392 57.5824 23.392ZM62.9513 32C62.7166 32 62.5246 31.9253 62.3753 31.776C62.2259 31.616 62.1513 31.4187 62.1513 31.184V24.4C62.1513 24.1653 62.2259 23.9733 62.3753 23.824C62.5246 23.664 62.7166 23.584 62.9513 23.584C63.1753 23.584 63.3619 23.664 63.5113 23.824C63.6713 23.9733 63.7513 24.1653 63.7513 24.4V26.192L63.5913 25.504C63.6766 25.2053 63.8046 24.928 63.9753 24.672C64.1566 24.416 64.3699 24.192 64.6153 24C64.8606 23.808 65.1326 23.6587 65.4313 23.552C65.7406 23.4453 66.0606 23.392 66.3913 23.392C66.6686 23.392 66.9086 23.4667 67.1113 23.616C67.3139 23.7653 67.4153 23.952 67.4153 24.176C67.4153 24.464 67.3406 24.6773 67.1913 24.816C67.0419 24.944 66.8766 25.008 66.6953 25.008C66.5353 25.008 66.3806 24.976 66.2313 24.912C66.0819 24.8373 65.9059 24.8 65.7033 24.8C65.4793 24.8 65.2499 24.8587 65.0153 24.976C64.7806 25.0933 64.5673 25.2693 64.3753 25.504C64.1833 25.728 64.0286 25.9947 63.9113 26.304C63.8046 26.6133 63.7513 26.96 63.7513 27.344V31.184C63.7513 31.4187 63.6713 31.616 63.5113 31.776C63.3619 31.9253 63.1753 32 62.9513 32ZM70.3428 31.184C70.3428 31.4187 70.2681 31.616 70.1188 31.776C69.9694 31.9253 69.7774 32 69.5428 32C69.3188 32 69.1268 31.9253 68.9668 31.776C68.8174 31.616 68.7428 31.4187 68.7428 31.184V24.336C68.7428 24.1013 68.8174 23.9093 68.9668 23.76C69.1268 23.6 69.3188 23.52 69.5428 23.52C69.7774 23.52 69.9694 23.6 70.1188 23.76C70.2681 23.9093 70.3428 24.1013 70.3428 24.336V31.184ZM69.5268 22.464C69.2174 22.464 68.9934 22.4107 68.8548 22.304C68.7161 22.1867 68.6468 21.9947 68.6468 21.728V21.472C68.6468 21.2053 68.7214 21.0187 68.8708 20.912C69.0201 20.8053 69.2441 20.752 69.5428 20.752C69.8628 20.752 70.0921 20.8107 70.2308 20.928C70.3694 21.0347 70.4388 21.216 70.4388 21.472V21.728C70.4388 22.0053 70.3641 22.1973 70.2148 22.304C70.0761 22.4107 69.8468 22.464 69.5268 22.464ZM76.735 23.392C77.4817 23.392 78.143 23.5787 78.719 23.952C79.3057 24.3253 79.7697 24.8427 80.111 25.504C80.4523 26.1547 80.623 26.9067 80.623 27.76C80.623 28.6133 80.4523 29.3707 80.111 30.032C79.7697 30.6933 79.311 31.216 78.735 31.6C78.159 31.9733 77.5083 32.16 76.783 32.16C76.3777 32.16 75.9937 32.096 75.631 31.968C75.2683 31.8293 74.9483 31.6587 74.671 31.456C74.3937 31.2427 74.1643 31.0187 73.983 30.784C73.8123 30.5493 73.7057 30.3307 73.663 30.128L74.095 29.92V31.312C74.095 31.536 74.015 31.728 73.855 31.888C73.7057 32.0373 73.519 32.112 73.295 32.112C73.0603 32.112 72.8683 32.0373 72.719 31.888C72.5697 31.7387 72.495 31.5467 72.495 31.312V20.976C72.495 20.7413 72.5697 20.5493 72.719 20.4C72.8683 20.24 73.0603 20.16 73.295 20.16C73.519 20.16 73.7057 20.24 73.855 20.4C74.015 20.5493 74.095 20.7413 74.095 20.976V25.472L73.839 25.328C73.871 25.1253 73.9723 24.9173 74.143 24.704C74.3137 24.48 74.527 24.2667 74.783 24.064C75.0497 23.8613 75.3483 23.7013 75.679 23.584C76.0203 23.456 76.3723 23.392 76.735 23.392ZM76.559 24.864C76.047 24.864 75.599 24.992 75.215 25.248C74.8417 25.504 74.5483 25.8507 74.335 26.288C74.1217 26.7147 74.015 27.2053 74.015 27.76C74.015 28.3147 74.1217 28.816 74.335 29.264C74.5483 29.7013 74.8417 30.048 75.215 30.304C75.599 30.56 76.047 30.688 76.559 30.688C77.0603 30.688 77.4977 30.56 77.871 30.304C78.2443 30.048 78.5377 29.696 78.751 29.248C78.975 28.8 79.087 28.304 79.087 27.76C79.087 27.2053 78.975 26.7147 78.751 26.288C78.5377 25.8507 78.2443 25.504 77.871 25.248C77.4977 24.992 77.0603 24.864 76.559 24.864ZM86.3525 32.16C85.4672 32.16 84.6992 31.9787 84.0485 31.616C83.3978 31.2427 82.8912 30.736 82.5285 30.096C82.1765 29.4453 82.0005 28.704 82.0005 27.872C82.0005 26.9333 82.1872 26.1333 82.5605 25.472C82.9445 24.8 83.4405 24.288 84.0485 23.936C84.6565 23.5733 85.3018 23.392 85.9845 23.392C86.5072 23.392 87.0032 23.4987 87.4725 23.712C87.9418 23.9147 88.3578 24.2027 88.7205 24.576C89.0938 24.9387 89.3872 25.3707 89.6005 25.872C89.8138 26.3627 89.9258 26.9013 89.9365 27.488C89.9258 27.7013 89.8405 27.8773 89.6805 28.016C89.5205 28.1547 89.3338 28.224 89.1205 28.224H82.8965L82.5125 26.864H88.5285L88.2245 27.152V26.752C88.2032 26.3787 88.0805 26.0533 87.8565 25.776C87.6325 25.488 87.3552 25.2693 87.0245 25.12C86.6938 24.96 86.3472 24.88 85.9845 24.88C85.6645 24.88 85.3552 24.9333 85.0565 25.04C84.7685 25.136 84.5072 25.296 84.2725 25.52C84.0485 25.744 83.8672 26.0427 83.7285 26.416C83.6005 26.7787 83.5365 27.232 83.5365 27.776C83.5365 28.3627 83.6592 28.8747 83.9045 29.312C84.1498 29.7493 84.4805 30.0907 84.8965 30.336C85.3125 30.5707 85.7712 30.688 86.2725 30.688C86.6672 30.688 86.9925 30.6507 87.2485 30.576C87.5045 30.4907 87.7178 30.3893 87.8885 30.272C88.0592 30.1547 88.2085 30.0427 88.3365 29.936C88.4965 29.84 88.6565 29.792 88.8165 29.792C89.0085 29.792 89.1685 29.8613 89.2965 30C89.4245 30.128 89.4885 30.2827 89.4885 30.464C89.4885 30.6987 89.3712 30.912 89.1365 31.104C88.8485 31.3813 88.4485 31.6267 87.9365 31.84C87.4352 32.0533 86.9072 32.16 86.3525 32.16Z" fill="white"/>
</svg>
