<svg width="90" height="35" viewBox="0 0 90 35" fill="none" xmlns="http://www.w3.org/2000/svg">
<rect x="0.5" y="0.666687" width="89.5" height="33.6667" rx="2" fill="#DEF9EC"/>
<g clip-path="url(#clip0_92_1272)">
<path fill-rule="evenodd" clip-rule="evenodd" d="M26.75 22C26.75 21.4477 27.1977 21 27.75 21C28.3023 21 28.75 21.4477 28.75 22C28.75 22.5523 28.3023 23 27.75 23C27.1977 23 26.75 22.5523 26.75 22Z" fill="#3BB77E"/>
<path fill-rule="evenodd" clip-rule="evenodd" d="M32.25 22C32.25 21.4477 32.6977 21 33.25 21C33.8023 21 34.25 21.4477 34.25 22C34.25 22.5523 33.8023 23 33.25 23C32.6977 23 32.25 22.5523 32.25 22Z" fill="#3BB77E"/>
<path fill-rule="evenodd" clip-rule="evenodd" d="M23.25 12C23.25 11.7239 23.4739 11.5 23.75 11.5H25.75C25.9883 11.5 26.1935 11.6682 26.2403 11.9019L26.6602 14H34.75C34.899 14 35.0403 14.0665 35.1352 14.1813C35.2302 14.2961 35.2691 14.4473 35.2411 14.5937L34.4404 18.7924C34.3719 19.1377 34.184 19.4479 33.9098 19.6686C33.6369 19.8883 33.2958 20.0055 32.9457 20H28.0943C27.7442 20.0055 27.4031 19.8883 27.1302 19.6686C26.8561 19.448 26.6683 19.138 26.5997 18.7928C26.5996 18.7927 26.5997 18.793 26.5997 18.7928L25.7644 14.6196C25.761 14.6058 25.7582 14.5918 25.756 14.5775L25.3402 12.5H23.75C23.4739 12.5 23.25 12.2761 23.25 12ZM26.8604 15L27.5804 18.5976C27.6033 18.7127 27.6659 18.8161 27.7573 18.8897C27.8487 18.9633 27.9631 19.0023 28.0804 19.0001L28.09 19H32.95L32.9596 19.0001C33.0769 19.0023 33.1913 18.9633 33.2827 18.8897C33.3737 18.8164 33.4361 18.7137 33.4593 18.5992L34.1456 15H26.8604Z" fill="#3BB77E"/>
</g>
<path d="M44.87 14.156L41.58 22.164C41.5427 22.276 41.4773 22.3647 41.384 22.43C41.2907 22.4953 41.1927 22.528 41.09 22.528C40.9127 22.528 40.782 22.4813 40.698 22.388C40.614 22.2947 40.572 22.1827 40.572 22.052C40.5627 21.9867 40.572 21.9167 40.6 21.842L44.226 13.022C44.2727 12.8913 44.3427 12.798 44.436 12.742C44.5387 12.6767 44.6507 12.6487 44.772 12.658C44.8933 12.658 45.0007 12.6907 45.094 12.756C45.1967 12.8213 45.2667 12.91 45.304 13.022L48.916 21.758C48.944 21.8327 48.958 21.9073 48.958 21.982C48.958 22.15 48.902 22.2853 48.79 22.388C48.678 22.4813 48.552 22.528 48.412 22.528C48.3 22.528 48.1973 22.4953 48.104 22.43C48.0107 22.3647 47.9407 22.2713 47.894 22.15L44.562 14.142L44.87 14.156ZM42.28 19.882L42.756 18.79H46.914L47.124 19.882H42.28ZM56.2598 12.14C56.4184 12.14 56.5491 12.196 56.6518 12.308C56.7638 12.4107 56.8198 12.5413 56.8198 12.7V21.926C56.8198 22.0847 56.7638 22.22 56.6518 22.332C56.5491 22.444 56.4184 22.5 56.2598 22.5C56.0918 22.5 55.9564 22.444 55.8538 22.332C55.7511 22.22 55.6998 22.0847 55.6998 21.926V20.596L55.9658 20.498C55.9658 20.722 55.8958 20.96 55.7558 21.212C55.6158 21.4547 55.4244 21.6833 55.1818 21.898C54.9391 22.1127 54.6498 22.29 54.3138 22.43C53.9871 22.57 53.6324 22.64 53.2498 22.64C52.6244 22.64 52.0551 22.4767 51.5418 22.15C51.0378 21.8233 50.6364 21.3753 50.3378 20.806C50.0484 20.2367 49.9038 19.588 49.9038 18.86C49.9038 18.1227 50.0484 17.4693 50.3378 16.9C50.6364 16.3307 51.0378 15.8873 51.5418 15.57C52.0458 15.2433 52.6058 15.08 53.2218 15.08C53.6138 15.08 53.9824 15.1453 54.3278 15.276C54.6731 15.4067 54.9718 15.584 55.2238 15.808C55.4851 16.032 55.6904 16.2793 55.8398 16.55C55.9891 16.8207 56.0638 17.0913 56.0638 17.362L55.6998 17.278V12.7C55.6998 12.5413 55.7511 12.4107 55.8538 12.308C55.9564 12.196 56.0918 12.14 56.2598 12.14ZM53.3758 21.604C53.8424 21.604 54.2531 21.4873 54.6078 21.254C54.9718 21.0113 55.2518 20.6847 55.4478 20.274C55.6531 19.854 55.7558 19.3827 55.7558 18.86C55.7558 18.328 55.6531 17.8567 55.4478 17.446C55.2518 17.0353 54.9718 16.7133 54.6078 16.48C54.2531 16.2373 53.8424 16.116 53.3758 16.116C52.9184 16.116 52.5078 16.2373 52.1438 16.48C51.7891 16.7133 51.5091 17.0353 51.3038 17.446C51.0984 17.8567 50.9958 18.328 50.9958 18.86C50.9958 19.3733 51.0984 19.84 51.3038 20.26C51.5091 20.6707 51.7891 20.9973 52.1438 21.24C52.5078 21.4827 52.9184 21.604 53.3758 21.604ZM64.8594 12.14C65.018 12.14 65.1487 12.196 65.2514 12.308C65.3634 12.4107 65.4194 12.5413 65.4194 12.7V21.926C65.4194 22.0847 65.3634 22.22 65.2514 22.332C65.1487 22.444 65.018 22.5 64.8594 22.5C64.6914 22.5 64.556 22.444 64.4534 22.332C64.3507 22.22 64.2994 22.0847 64.2994 21.926V20.596L64.5654 20.498C64.5654 20.722 64.4954 20.96 64.3554 21.212C64.2154 21.4547 64.024 21.6833 63.7814 21.898C63.5387 22.1127 63.2494 22.29 62.9134 22.43C62.5867 22.57 62.232 22.64 61.8494 22.64C61.224 22.64 60.6547 22.4767 60.1414 22.15C59.6374 21.8233 59.236 21.3753 58.9374 20.806C58.648 20.2367 58.5034 19.588 58.5034 18.86C58.5034 18.1227 58.648 17.4693 58.9374 16.9C59.236 16.3307 59.6374 15.8873 60.1414 15.57C60.6454 15.2433 61.2054 15.08 61.8214 15.08C62.2134 15.08 62.582 15.1453 62.9274 15.276C63.2727 15.4067 63.5714 15.584 63.8234 15.808C64.0847 16.032 64.29 16.2793 64.4394 16.55C64.5887 16.8207 64.6634 17.0913 64.6634 17.362L64.2994 17.278V12.7C64.2994 12.5413 64.3507 12.4107 64.4534 12.308C64.556 12.196 64.6914 12.14 64.8594 12.14ZM61.9754 21.604C62.442 21.604 62.8527 21.4873 63.2074 21.254C63.5714 21.0113 63.8514 20.6847 64.0474 20.274C64.2527 19.854 64.3554 19.3827 64.3554 18.86C64.3554 18.328 64.2527 17.8567 64.0474 17.446C63.8514 17.0353 63.5714 16.7133 63.2074 16.48C62.8527 16.2373 62.442 16.116 61.9754 16.116C61.518 16.116 61.1074 16.2373 60.7434 16.48C60.3887 16.7133 60.1087 17.0353 59.9034 17.446C59.698 17.8567 59.5954 18.328 59.5954 18.86C59.5954 19.3733 59.698 19.84 59.9034 20.26C60.1087 20.6707 60.3887 20.9973 60.7434 21.24C61.1074 21.4827 61.518 21.604 61.9754 21.604Z" fill="#3BB77E"/>
<defs>
<clipPath id="clip0_92_1272">
<rect width="12" height="12" fill="white" transform="translate(23.25 11.5)"/>
</clipPath>
</defs>
</svg>
